<?xml version="1.0" standalone="no"?>
<!DOCTYPE svg PUBLIC "-//W3C//DTD SVG 20010904//EN"
 "http://www.w3.org/TR/2001/REC-SVG-20010904/DTD/svg10.dtd">
<svg version="1.0" xmlns="http://www.w3.org/2000/svg"
 width="401.000000pt" height="271.000000pt" viewBox="0 0 401.000000 271.000000"
 preserveAspectRatio="xMidYMid meet">

<g transform="translate(0.000000,271.000000) scale(0.100000,-0.100000)"
fill="#000000" stroke="none">
<path d="M0 1355 l0 -1355 2005 0 2005 0 0 1355 0 1355 -2005 0 -2005 0 0
-1355z m3940 0 l0 -1305 -1930 0 -1930 0 0 1305 0 1305 1930 0 1930 0 0 -1305z"/>
<path d="M150 1350 l0 -1240 1860 0 1860 0 0 1240 0 1240 -1860 0 -1860 0 0
-1240z m1738 808 c-2 -13 -11 -24 -23 -26 -28 -5 -53 -30 -57 -55 -2 -15 -13
-23 -37 -28 -18 -4 -46 -21 -62 -39 -22 -23 -36 -31 -57 -28 -22 2 -26 7 -23
28 9 63 66 133 131 159 14 5 49 10 78 10 50 1 53 -1 50 -21z m89 -24 c18 -14
40 -38 48 -54 14 -27 14 -29 -7 -32 -13 -2 -29 -16 -38 -33 -8 -16 -22 -35
-31 -42 -41 -31 -25 -112 26 -135 14 -6 25 -14 25 -18 0 -8 -46 -41 -70 -51
-22 -9 -66 41 -74 83 -4 23 -17 45 -33 58 -24 19 -35 20 -110 14 -73 -6 -83
-5 -83 10 0 12 10 16 40 16 32 0 43 5 62 30 12 17 31 30 43 30 28 0 65 27 65
49 0 22 19 41 42 41 11 0 27 13 36 30 9 16 19 30 21 30 2 0 19 -11 38 -26z
m77 -180 c-1 -28 -8 -62 -15 -77 l-14 -26 -33 20 c-39 26 -42 56 -7 89 14 13
25 30 25 37 0 9 8 13 23 11 20 -3 22 -8 21 -54z m406 16 c10 -5 23 -24 29 -41
16 -46 -3 -77 -69 -114 -50 -28 -55 -34 -58 -68 -4 -46 -32 -53 -32 -7 0 44
19 77 52 91 46 19 78 49 78 73 0 43 -14 46 -197 46 -147 0 -173 2 -173 15 0
13 26 15 176 15 96 0 184 -4 194 -10z m-652 -92 c6 -6 12 -24 12 -40 0 -18 10
-39 25 -54 14 -14 25 -27 25 -29 0 -3 -19 -5 -42 -5 -58 0 -124 35 -160 84
l-30 41 52 6 c28 4 54 10 57 13 8 7 43 -2 61 -16z m350 -265 l-3 -98 -315 0
-315 0 -3 84 c-2 46 -1 90 2 98 4 10 67 13 321 13 l316 0 -3 -97z m220 50 c2
-9 -8 -13 -32 -13 -34 0 -44 8 -29 24 11 11 56 2 61 -11z m-48 -82 c0 -16 -10
-45 -22 -65 -20 -31 -28 -35 -65 -36 -41 0 -43 2 -43 29 0 50 52 99 108 100
18 1 22 -4 22 -28z m122 2 c23 -21 33 -38 42 -75 6 -28 6 -28 -44 -28 -38 0
-50 4 -50 15 0 8 -9 23 -20 32 -13 11 -20 30 -20 52 0 33 1 34 36 28 20 -3 45
-14 56 -24z m-94 -129 c-2 -22 -7 -39 -13 -39 -12 0 -19 60 -10 83 10 28 27
-3 23 -44z m-60 -43 c18 -52 85 -49 98 4 6 22 11 25 55 25 l49 0 0 -43 c0 -60
-15 -106 -47 -139 l-27 -28 -23 22 c-15 14 -36 22 -58 22 -22 0 -43 -8 -58
-22 l-23 -22 -29 30 c-26 28 -30 39 -33 105 l-4 75 45 0 c41 0 46 -3 55 -29z
m78 -186 c17 -13 15 -14 -31 -14 -46 0 -48 1 -31 14 11 8 25 15 31 15 6 0 20
-7 31 -15z m-1516 -440 l0 -175 -35 0 -35 0 0 175 0 175 35 0 35 0 0 -175z
m1040 113 c0 -59 1 -60 18 -45 26 24 97 22 121 -2 23 -23 33 -83 29 -171 l-3
-65 -35 0 -35 0 -3 89 c-2 50 -8 96 -14 103 -14 18 -38 16 -60 -4 -15 -13 -18
-32 -18 -105 l0 -88 -35 0 -35 0 0 175 0 175 35 0 35 0 0 -62z m450 -113 l0
-175 -35 0 -35 0 0 175 0 175 35 0 35 0 0 -175z m-1235 73 c31 -14 34 -25 37
-151 l3 -97 -32 0 c-17 0 -33 5 -35 11 -3 9 -10 9 -26 0 -13 -7 -43 -11 -69
-9 -58 4 -89 38 -78 87 8 37 38 55 108 65 54 8 72 31 42 52 -26 19 -42 17 -62
-6 -21 -24 -83 -28 -83 -6 0 8 14 26 31 40 25 21 41 26 84 26 30 0 66 -5 80
-12z m173 -82 c3 -93 11 -116 43 -116 38 0 49 27 49 121 l0 89 35 0 35 0 0
-130 0 -130 -30 0 c-20 0 -30 5 -30 16 0 14 -2 14 -22 0 -33 -23 -99 -21 -126
4 -20 19 -22 30 -22 131 l0 110 33 -3 32 -3 3 -89z m383 78 c11 -14 13 -14 21
0 5 9 22 16 38 16 l30 0 0 -135 c0 -83 -5 -144 -12 -160 -16 -35 -57 -55 -113
-55 -67 0 -115 29 -115 71 0 16 67 10 74 -6 7 -18 67 -20 84 -3 7 7 12 24 12
40 0 27 0 27 -28 11 -37 -21 -91 -11 -123 23 -20 22 -24 36 -24 91 0 60 2 67
33 94 37 33 100 40 123 13z m939 -11 c28 -26 56 -104 42 -118 -3 -3 -45 -5
-94 -5 -48 0 -88 -3 -88 -8 0 -4 7 -18 16 -30 18 -26 65 -30 84 -7 7 8 28 15
47 15 l34 0 -17 -29 c-21 -36 -52 -51 -105 -51 -78 0 -129 53 -129 133 0 40
35 96 70 114 45 23 106 16 140 -14z m160 11 c0 -14 2 -14 22 0 33 23 103 21
128 -4 18 -18 20 -33 20 -130 l0 -110 -35 0 -35 0 0 95 c0 83 -2 96 -19 105
-27 14 -37 13 -55 -6 -12 -12 -16 -37 -16 -105 l0 -89 -35 0 c-19 0 -35 1 -35
3 -6 25 -11 231 -6 242 8 21 66 20 66 -1z m425 -9 c34 -33 32 -55 -5 -55 -16
0 -33 6 -37 14 -12 21 -47 28 -68 13 -27 -20 -12 -34 52 -48 66 -15 93 -38 93
-76 -1 -55 -43 -83 -123 -83 -64 0 -107 27 -107 66 0 19 5 24 26 24 14 0 33
-9 43 -21 29 -36 103 -23 88 14 -3 9 -31 21 -61 28 -93 20 -123 73 -71 124 20
21 34 25 85 25 51 0 65 -4 85 -25z"/>
<path d="M1553 1663 c3 -10 8 -40 12 -66 7 -55 26 -68 56 -41 19 17 21 18 30
1 10 -17 44 -23 52 -9 3 4 8 35 12 70 6 51 4 62 -8 62 -18 0 -27 -21 -27 -63
l-1 -32 -21 28 -21 28 -17 -26 -17 -27 -7 46 c-6 37 -11 46 -27 46 -15 0 -19
-5 -16 -17z"/>
<path d="M1764 1618 c4 -34 10 -66 12 -70 9 -14 36 -9 49 9 13 17 14 17 34 -1
28 -25 47 -15 54 31 11 62 8 93 -7 93 -15 0 -25 -29 -26 -70 l-1 -25 -17 28
c-9 15 -19 27 -23 27 -3 0 -12 -12 -19 -27 -14 -30 -15 -28 -25 30 -4 24 -11
37 -22 37 -13 0 -15 -9 -9 -62z"/>
<path d="M1965 1618 c4 -34 9 -66 12 -70 8 -14 42 -8 52 9 9 17 10 17 28 0 35
-31 51 -22 58 36 3 28 9 60 11 70 4 12 0 17 -14 17 -16 0 -21 -9 -27 -47 l-7
-48 -15 30 -16 29 -17 -22 c-25 -30 -28 -28 -32 15 -2 27 -8 39 -22 41 -17 4
-18 -1 -11 -60z"/>
<path d="M1025 723 c-49 -12 -60 -47 -20 -65 33 -15 75 12 75 47 0 25 -10 29
-55 18z"/>
<path d="M1600 800 c-43 -43 -10 -140 43 -124 38 11 47 25 47 70 0 68 -47 97
-90 54z"/>
<path d="M2493 808 c-27 -35 -25 -38 31 -38 58 0 67 8 40 34 -19 19 -58 21
-71 4z"/>
</g>
</svg>
