<?xml version="1.0" standalone="no"?>
<!DOCTYPE svg PUBLIC "-//W3C//DTD SVG 20010904//EN"
 "http://www.w3.org/TR/2001/REC-SVG-20010904/DTD/svg10.dtd">
<svg version="1.0" xmlns="http://www.w3.org/2000/svg"
 width="440.000000pt" height="136.000000pt" viewBox="0 0 440.000000 136.000000"
 preserveAspectRatio="xMidYMid meet">

<g transform="translate(0.000000,136.000000) scale(0.100000,-0.100000)"
fill="#000000" stroke="none">
<path d="M344 1016 c-90 -92 -182 -302 -225 -509 -25 -122 -29 -249 -10 -295
28 -66 94 -48 164 45 23 30 52 67 64 82 l21 26 -19 -83 c-24 -99 -22 -185 3
-190 9 -2 32 11 51 28 21 18 38 26 42 20 11 -18 42 -11 74 16 l31 26 0 -30 c0
-16 7 -35 15 -42 18 -15 52 10 98 70 27 34 32 37 42 23 11 -15 15 -14 43 6
102 72 209 248 219 359 5 52 9 62 25 62 25 0 42 -41 34 -82 -9 -47 -56 -144
-110 -224 -44 -65 -55 -94 -38 -94 4 0 29 28 57 63 27 34 70 88 95 119 39 50
60 69 60 54 0 -2 -13 -35 -29 -73 -28 -65 -30 -75 -24 -162 8 -122 26 -105 28
26 1 80 5 106 23 141 25 47 33 113 15 119 -6 2 -27 -10 -47 -28 -41 -36 -41
-36 -21 21 30 85 11 160 -41 160 -17 0 -27 8 -34 24 -12 32 -37 45 -77 39 -33
-5 -33 -5 -33 36 0 85 -41 134 -100 118 -11 -3 -26 3 -37 15 -11 12 -26 18
-40 15 -20 -4 -25 2 -34 36 -6 22 -16 48 -22 58 -14 22 -55 25 -82 5 -17 -12
-21 -10 -40 18 -15 22 -30 32 -54 34 -29 3 -40 -3 -87 -52z m110 -2 c25 -24
20 -40 -33 -110 -27 -36 -70 -105 -95 -153 -80 -155 -186 -442 -186 -504 0
-10 -4 -15 -10 -12 -17 10 -11 161 10 265 65 318 234 595 314 514z m129 -41
c35 -39 31 -68 -15 -126 -23 -31 -46 -56 -50 -56 -5 -1 -8 39 -8 89 0 74 3 91
18 99 25 15 37 13 55 -6z m-95 -145 c-5 -88 -11 -116 -41 -188 -19 -47 -41
-105 -48 -130 -7 -25 -17 -49 -23 -55 -6 -5 -18 -26 -27 -45 -21 -45 -146
-180 -166 -180 -13 0 -15 9 -10 49 7 59 101 310 164 436 50 99 128 215 145
215 7 0 9 -32 6 -102z m187 42 c7 -12 -12 -40 -26 -40 -10 0 -12 34 -2 43 9
10 21 9 28 -3z m-55 -51 c0 -11 -18 -50 -40 -86 -75 -125 -145 -338 -157 -481
-5 -65 -9 -75 -36 -98 -36 -30 -50 -18 -41 36 15 87 66 273 93 336 16 38 35
89 41 114 14 50 49 116 93 172 31 39 47 41 47 7z m164 15 c16 -15 20 -27 31
-95 5 -34 2 -40 -34 -68 l-40 -32 -3 101 c-3 92 0 106 24 109 4 1 14 -6 22
-15z m-69 -74 c11 -96 -2 -154 -70 -305 -34 -77 -68 -157 -74 -177 -14 -43
-88 -115 -103 -100 -6 6 4 35 31 83 65 121 141 383 141 493 0 22 37 66 56 66
7 0 15 -23 19 -60z m-115 -122 c-7 -40 -23 -110 -36 -156 -28 -97 -106 -256
-112 -229 -5 24 24 166 50 242 28 82 97 230 104 222 3 -3 1 -39 -6 -79z m315
27 c11 -18 6 -28 -43 -90 -52 -66 -55 -68 -48 -35 4 19 10 58 13 85 3 28 11
53 17 58 18 12 48 3 61 -18z m-120 -127 c-22 -89 -80 -225 -117 -278 -38 -56
-89 -110 -101 -110 -19 0 3 72 52 171 28 55 60 132 72 169 14 48 33 83 62 117
41 46 42 47 45 20 2 -14 -4 -55 -13 -89z m132 12 c-8 -69 -70 -182 -136 -249
-30 -31 -56 -51 -58 -45 -5 15 38 111 84 188 38 63 104 156 111 156 3 0 2 -23
-1 -50z"/>
<path d="M1320 785 l0 -165 90 0 90 0 0 30 c0 30 -1 30 -55 30 l-55 0 0 135 0
135 -35 0 -35 0 0 -165z m103 -138 l62 -3 -67 -2 -68 -2 2 148 2 147 3 -142 4
-142 62 -4z"/>
<path d="M1601 793 c-23 -87 -41 -161 -41 -165 0 -5 13 -8 30 -8 25 0 30 4 36
35 6 34 8 35 50 35 41 0 43 -1 50 -35 6 -32 9 -35 39 -35 l33 0 -14 48 c-7 26
-27 100 -45 165 l-31 117 -33 0 -32 0 -42 -157z m122 -3 c36 -122 48 -180 23
-110 -12 34 -15 35 -69 38 l-56 3 -12 -42 c-7 -23 -15 -37 -17 -31 -2 8 48
193 74 271 8 25 20 -1 57 -129z"/>
<path d="M1649 820 l-27 -90 54 0 53 0 -16 53 c-8 28 -21 69 -27 90 l-11 38
-26 -91z m51 -57 c0 -7 -12 -13 -26 -13 -20 0 -25 4 -20 16 3 9 9 28 13 42 l6
27 13 -30 c7 -16 13 -36 14 -42z"/>
<path d="M1872 810 c3 -134 4 -141 28 -165 50 -49 169 -32 189 27 6 17 11 87
11 154 l0 124 -30 0 -30 0 0 -116 c0 -135 -7 -154 -56 -154 -46 0 -54 23 -54
161 l0 109 -31 0 -31 0 4 -140z m67 -141 c13 -10 32 -19 43 -19 22 0 60 18 70
34 4 6 8 64 8 129 0 71 4 117 10 117 14 0 13 -213 -1 -243 -22 -48 -97 -62
-143 -26 -26 20 -26 21 -24 147 l2 127 5 -123 c6 -115 8 -125 30 -143z"/>
<path d="M2223 926 c-28 -24 -28 -26 -28 -139 0 -108 1 -117 24 -141 14 -14
28 -26 33 -26 13 0 5 23 -14 40 -15 12 -18 34 -19 125 -1 95 1 111 17 125 18
15 30 40 20 40 -3 0 -18 -11 -33 -24z"/>
<path d="M3270 785 l0 -165 90 0 90 0 0 30 0 30 -60 0 -60 0 0 40 0 40 45 0
c43 0 45 1 45 30 0 29 -2 30 -45 30 -45 0 -45 0 -45 35 l0 35 60 0 60 0 0 30
0 30 -90 0 -90 0 0 -165z m103 138 l-63 -4 0 -59 0 -60 44 0 c25 0 48 -4 51
-10 4 -6 -13 -10 -44 -10 l-51 0 0 -65 0 -64 63 -4 62 -3 -67 -2 -68 -2 0 145
0 145 68 -2 67 -2 -62 -3z"/>
<path d="M3540 785 l0 -165 30 0 30 0 0 80 c0 44 3 80 8 80 4 0 22 -36 41 -80
33 -77 35 -80 68 -80 l33 0 0 165 0 165 -35 0 -34 0 -3 -82 -3 -82 -34 82
c-33 80 -34 82 -67 82 l-34 0 0 -165z m102 20 l63 -125 5 127 6 128 2 -148 c1
-82 -1 -146 -5 -143 -5 2 -35 59 -68 126 l-60 122 -5 -129 -6 -128 -2 148 c-1
81 0 147 3 147 2 0 32 -56 67 -125z"/>
<path d="M3861 924 c-23 -19 -31 -34 -31 -58 0 -45 24 -73 85 -102 57 -27 73
-48 54 -70 -17 -21 -56 -17 -73 8 l-16 22 -22 -22 c-28 -27 -18 -48 33 -75 65
-34 129 -7 150 63 17 55 -7 92 -82 130 -43 22 -59 36 -57 48 4 23 46 27 68 7
21 -19 47 -14 57 11 4 12 -3 25 -21 41 -39 33 -104 32 -145 -3z m120 -15 l24
-21 -25 16 c-74 48 -152 -30 -84 -83 15 -12 33 -21 40 -21 21 0 84 -66 84 -87
0 -11 -9 -32 -21 -47 -25 -32 -76 -35 -110 -6 l-24 20 30 -15 c55 -27 94 -14
110 36 10 30 -13 57 -80 92 -55 29 -60 35 -63 69 -2 28 2 40 20 52 31 22 71
20 99 -5z"/>
<path d="M2237 883 c-4 -3 -7 -47 -7 -98 0 -68 4 -96 16 -111 8 -10 13 -13 9
-6 -3 6 0 12 7 12 9 0 10 2 1 8 -7 4 -11 40 -11 97 0 57 4 93 11 97 8 5 7 8
-4 8 -9 0 -19 -3 -22 -7z"/>
<path d="M3115 670 c-7 -11 4 -16 45 -23 21 -4 20 -5 -7 -6 -48 -2 -51 -21 -4
-21 39 0 41 2 41 30 0 28 -3 30 -34 30 -19 0 -38 -5 -41 -10z"/>
<path d="M1324 374 c-7 -28 16 -61 35 -50 17 11 13 26 -4 20 -11 -4 -15 0 -15
16 0 16 4 20 15 16 9 -3 15 0 15 9 0 27 -39 17 -46 -11z"/>
<path d="M1421 369 c-6 -17 -11 -32 -11 -33 0 -1 11 -1 25 -1 21 0 23 4 18 25
-9 41 -20 44 -32 9z"/>
<path d="M1500 366 c0 -34 1 -35 20 -24 25 15 23 51 -2 56 -15 3 -18 -4 -18
-32z m22 -8 c-9 -9 -12 -7 -12 12 0 19 3 21 12 12 9 -9 9 -15 0 -24z"/>
<path d="M1577 392 c6 -4 13 -21 16 -37 l4 -30 2 32 c0 17 7 34 14 36 6 3 -1
6 -18 6 -16 0 -25 -3 -18 -7z"/>
<path d="M1692 373 c-2 -34 -17 -52 -25 -31 -4 9 -6 10 -6 1 -1 -17 19 -27 31
-15 5 5 8 25 5 43 l-4 34 -1 -32z"/>
<path d="M1750 390 c0 -5 6 -9 13 -7 6 1 12 -5 12 -13 0 -8 -6 -14 -12 -12
-18 3 -16 -15 1 -21 18 -7 29 32 14 50 -12 15 -28 17 -28 3z"/>
<path d="M1831 363 c1 -21 3 -30 6 -20 2 9 10 17 16 17 7 0 6 4 -3 10 -13 9
-13 11 0 20 13 8 12 10 -2 10 -14 0 -18 -8 -17 -37z"/>
<path d="M2822 365 c0 -22 2 -32 5 -22 2 9 8 17 13 17 5 0 11 -8 13 -17 3 -10
5 0 5 22 0 22 -2 32 -5 23 -2 -10 -8 -18 -13 -18 -5 0 -11 8 -13 18 -3 9 -5
-1 -5 -23z"/>
<path d="M2914 368 c-10 -31 -9 -33 13 -33 18 0 22 4 17 20 -13 43 -20 46 -30
13z"/>
<path d="M2990 368 c0 -26 4 -34 19 -34 25 0 24 59 -1 64 -14 3 -18 -4 -18
-30z m30 8 c0 -8 -4 -18 -10 -21 -5 -3 -10 3 -10 14 0 12 5 21 10 21 6 0 10
-6 10 -14z"/>
<path d="M3070 365 c0 -19 5 -35 11 -35 5 0 7 5 3 11 -3 6 0 15 7 20 12 7 11
9 -1 9 -11 1 -10 4 4 15 19 15 19 15 -2 15 -18 0 -22 -6 -22 -35z"/>
<path d="M3232 373 c-1 -18 -7 -33 -13 -33 -5 0 -7 -5 -3 -11 12 -20 26 7 21
42 l-4 34 -1 -32z"/>
<path d="M3285 380 c-7 -21 10 -60 25 -60 11 0 27 30 24 48 -1 6 -2 17 -3 22
-2 18 -40 10 -46 -10z m35 -21 c0 -10 -4 -19 -10 -19 -5 0 -10 12 -10 26 0 14
4 23 10 19 6 -3 10 -15 10 -26z"/>
<path d="M3384 359 l11 -42 6 39 c4 21 5 41 3 43 -2 2 -4 -1 -4 -9 0 -9 -3
-10 -14 -1 -11 9 -11 4 -2 -30z"/>
<path d="M2752 359 c10 -5 15 -17 12 -27 -5 -14 -4 -14 4 -2 12 16 -2 40 -22
40 -6 0 -3 -5 6 -11z"/>
</g>
</svg>
